<svg _ngcontent-xli-c1="" class="icons-category" viewBox="0 0 600 600" fill="#d9d9d9" xmlns="http://www.w3.org/2000/svg"><path d="M398.78,546.77c-35.58,0-68.23-10.44-94.63-30.29-23.38-17.58-42.32-42.69-56.28-74.61-14.68-33.55-24-68.77-33-102.82-3.44-13-7-26.4-10.78-39.48-2.36-8.15-4.95-14.7-9.87-20.17-3.79-4.21-15.31-17-7.59-34.09v0c-.48-2-5.11-9.11-16.17-18.22-11.22-9.24-19.18-12.38-21.09-12.39-2.41,0-4.91.11-7.33.19-14.44.47-30.79,1-46-9.49a72.43,72.43,0,0,1-25.7-30.81c-5.86-13.34-6.5-26.24-1.83-37.3s14.44-19.73,28.2-24.88a70.81,70.81,0,0,1,19.84-4.73c5.31-.38,7.32-2.16,8.62-7.62a97.19,97.19,0,0,1,3.66-11.34l.66-1.78c9-24.79,26-30.37,38.72-30.69,19.54-.47,36.81,11.41,44,30.3,7.14,18.74,8.44,39,4.07,63.85-2.07,11.79,11.15,37.85,22.4,45,4.77-3,9.59-4.13,14.36-3.41,8,1.22,13.22,7.26,16.46,11.7,5.19,7.11,12.65,11.87,24.95,15.91,11.93,3.93,24.21,7.64,36.08,11.22,24.28,7.34,49.4,14.93,73.57,24.91,35.14,14.49,63.67,34.41,84.82,59.21,21.89,25.67,36.52,57.31,43.47,94,5.75,30.43,1.81,58.26-11.4,80.48s-35.77,38.94-65.22,48.39a186.55,186.55,0,0,1-53.37,9h0ZM149.33,196.66c11.36,0,26.67,11.64,32.74,16.66,7.65,6.32,20.71,18.53,22.35,29.33a18.24,18.24,0,0,1-1.4,10c-1.8,4-1.67,7.79,4.54,14.69,7.65,8.49,11.15,18.09,13.79,27.2,3.84,13.28,7.43,26.8,10.89,39.88,8.85,33.4,18,67.93,32.12,100.21,12.71,29.05,29.73,51.74,50.61,67.44,24,18.08,54.15,27.27,87,26.65h0a168.85,168.85,0,0,0,48.22-8.09c25.57-8.2,44.16-21.81,55.25-40.45s14.18-41.51,9.18-67.94C502,345.49,463.59,299.71,397.19,272.32c-23.36-9.64-48.05-17.1-71.92-24.32-12-3.61-24.36-7.36-36.49-11.35-10.74-3.52-24.28-9.26-33.87-22.4-3.09-4.23-4.56-4.5-4.62-4.51-.24-.05-1.23.16-3,1.5-3.15,2.34-8.34,4.43-15.15,1.07-12.55-6.2-21.69-21.78-25-28.19s-11-23-8.55-36.87c3.77-21.49,2.77-38.76-3.17-54.33-4.51-11.84-14.71-19-26.74-18.71-6.66.16-16.22,2.3-22.26,18.86l-.68,1.85a82.35,82.35,0,0,0-3,9.26c-3.11,13.08-11.71,20.49-24.87,21.41A53.91,53.91,0,0,0,103,129.22c-9,3.38-15.22,8.57-17.94,15s-2.09,14.37,1.73,23.06a54,54,0,0,0,19.42,23.23c10.37,7.14,21.89,6.76,35.24,6.33,2.51-.09,5.12-.17,7.72-.2Z"></path><path d="M195.27,256.72A9,9,0,0,1,186.68,245c13.46-42.94,49.94-48.45,51.48-48.66a9,9,0,0,1,2.47,17.83c-1,.16-26.82,4.47-36.77,36.21A9,9,0,0,1,195.27,256.72Z"></path><path d="M421.8,504.74c-48.83,0-81.41-18.5-100.29-34.23C300.4,452.92,291.41,435,291,434.23a9,9,0,0,1,16.13-8c.16.3,8.14,15.87,26.51,31,24.59,20.2,55.27,30.14,91.25,29.49h.16a9,9,0,0,1,.15,18Z"></path><path d="M291.86,393.61q2.13,13.84-9.57,14.9-9.59,1.07-12.78-9.05t6.39-14.37Q290.79,379.78,291.86,393.61Z"></path></svg>