<svg _ngcontent-xli-c1="" class="icons-category" viewBox="0 0 600 600" fill="#d9d9d9" xmlns="http://www.w3.org/2000/svg"><path d="M456.4,487.66l1.87-12.45c.79-5.29,1.65-10.64,2.48-15.81,1.87-11.61,3.8-23.62,5-35.38.32-3,.44-5.07.46-6.42-2.43.2-5.76.74-7.13,1-35.81,5.83-73.55,11.64-118.76,18.29l-7.22,1.06-1.49.22L320,439.83c-37.93,5.54-97.11,14.09-144.54,20.83h0l-1.45.21c-44.12,6.25-69.1,9.65-76.35,10.41l-4.74.5-3.07-3.64c-1.81-2.14-2.15-3.46-3.72-14.15-.58-3.95-1.73-12.14-2.89-22.7-1.76-16-3.64-38.22-2.64-53.33l.49-7.51,11.56-1.3,28-3.21.5-.06c44.85-5.15,122.91-14.21,195.35-22.82l.32,0h.1c70-8.32,117.64-14.16,141.55-17.36l.49-.06,4-.55c3.11-.43,8.54-1.17,10.81-1.94.19-2.25-.31-7.29-.8-12.19l-.12-1.17c-1.84-14.88-12.68-31-37.6-31.75-2.75-.08-5.72-.09-8.81,0h-.09a358.66,358.66,0,0,0-40.1,3.39c-8.3,1.08-16.75,2.33-24.93,3.53-12.84,1.9-25,3.69-36.77,4.93-72.2,7.56-145.2,16.13-217,25.49l-1.49.24c-2.76.45-7.89,1.3-12.53,1.84-3.53.42-7.79.92-11.38,0H75v-7.54c-6.3-19.43-7.43-51.08,14.62-62.71l35.1-18.52,37.66-19.87c18.18-9.6,38.8-20.49,59.38-30.66l8,16.14c-20.36,10.06-40.86,20.89-58.95,30.44l-37.66,19.87L98,263c-10.13,5.35-10.37,23.15-7.21,36.54,2.6-.29,6.51-.84,12.41-1.81,1.06-.18,1.8-.29,2.09-.33,71.92-9.38,145.07-18,217.42-25.54,11.41-1.2,23.36-3,36-4.83,8.25-1.22,16.78-2.48,25.23-3.58a374.37,374.37,0,0,1,42.2-3.54h.09c3.34-.05,6.56,0,9.57.05,29.95.88,51.51,19.57,54.94,47.62l.17,1.52c1.16,11.74,1.86,18.83-2.3,24.68-4.64,6.51-12.81,7.63-23.17,9.05l-4.14.56-.48.06c-24,3.21-71.68,9.06-141.74,17.39l-.38,0c-72.34,8.6-150.22,17.64-195.15,22.8l-.5.06-24.78,2.84c-.1,20.82,3.65,51.55,5.76,65.75,11.85-1.53,33.93-4.58,66-9.12l.59-.29h1.53C219.7,436.2,279.3,427.58,317.41,422L329,420.33l1.54-.23,7.23-1.06c45.1-6.64,82.75-12.43,118.47-18.24,8.51-1.39,17.31-2.82,23.23,2.77,5.52,5.22,5.19,13.19,4.24,22.32-1.29,12.26-3.26,24.51-5.17,36.37l-.54,3.4c12.8-2.19,16.95-4.38,19.19-15.9l.05-.23c13.55-69.74,34-175.13-34.28-218.4L461.22,230C419.68,203.72,368,171,320.53,164.42c-1.08-.14-2.07-.25-3-.32a60.61,60.61,0,0,0-11.9.32l-1.75.23a100.67,100.67,0,0,0-18.15,4.6l-5.85-17a118.8,118.8,0,0,1,21.45-5.4l2.09-.27a77.68,77.68,0,0,1,15.47-.41c1.25.1,2.6.24,4.07.44,51.36,7.07,104.89,41,147.9,68.24l1.72,1.09c34.59,21.92,53.46,59.47,56.09,111.62,2.18,43.25-6.67,88.81-13.78,125.43l0,.23c-5,25.74-22.08,28.4-38.59,31-2.42.37-4.92.76-7.47,1.23ZM123.08,383.78h0Zm-1.83-17.9h0ZM92.43,305.15v0Z"></path><path d="M81.35,388.55l-7.09-89.26,9.73.07c4.18-.15,40.68-4.73,82.93-10,163.9-20.54,255.46-31.28,269.91-29.25,31.29,4.38,51.52,22.68,54.12,49v.1c1.16,11.74,1.86,18.82-2.3,24.67-4.64,6.51-12.82,7.63-23.17,9.05-63.07,8.64-127.33,15.88-189.46,22.88-50.13,5.65-102,11.49-152.81,18-7.57,1-15.24,1.82-22.66,2.63-3.32.36-6.64.72-10,1.1Zm12.34-72.07,4.14,52.11.78-.09c7.33-.8,14.91-1.63,22.31-2.58,51-6.56,102.9-12.4,153.09-18.06,62-7,126.18-14.21,189-22.82,3.09-.43,8.52-1.17,10.79-1.94.19-2.25-.31-7.29-.8-12.18v-.1c-2.49-25.16-27.89-31.39-38.69-32.91-14.85-2.08-177.69,18.33-265.18,29.29C128.36,312.31,105.38,315.17,93.69,316.48Z"></path><path d="M111.58,540.61c-5.41,0-10.77-1.1-15.13-4.78-6.7-5.64-7.76-14.74-7.94-22-.28-11.95-.43-24.07-.57-35.8-.07-5.18-.13-10.36-.21-15.54l-.12-8.55,8.54-.56c21.1-1.38,42.48-4.91,63.16-8.32,9.72-1.6,19.78-3.26,29.74-4.69q25.37-3.63,50.75-7.23c32.11-4.55,65.31-9.27,97.93-14.07,44.18-6.5,82.94-12.47,118.49-18.25,8.51-1.38,17.31-2.81,23.23,2.78,5.53,5.23,5.19,13.2,4.23,22.32-1.28,12.27-3.25,24.54-5.16,36.41-.83,5.11-1.67,10.4-2.45,15.58l-.91,6.06-6,1.38c-20.66,4.75-41.76,8-62.16,11.11-12.87,2-26.17,4-39.11,6.39C312.19,513.1,255.26,521,200.21,528.56c-26.21,3.61-53.31,7.36-79.89,11.3A59.91,59.91,0,0,1,111.58,540.61Zm-5.73-70,.09,7.13c.14,11.68.29,23.75.57,35.59.17,7.35,1.52,8.68,1.53,8.69s1.54,1.2,9.63,0c26.68-4,53.82-7.71,80.08-11.33,54.85-7.58,111.58-15.41,166.9-25.61,13.21-2.43,26.65-4.49,39.65-6.48,18.1-2.78,36.76-5.63,54.91-9.54.51-3.25,1-6.49,1.54-9.66,1.86-11.63,3.8-23.65,5-35.42.32-3,.44-5.07.46-6.42-2.43.2-5.76.74-7.13,1-35.64,5.8-74.49,11.78-118.76,18.29-32.66,4.81-65.89,9.52-98,14.09q-25.37,3.6-50.73,7.22c-9.77,1.4-19.73,3-29.36,4.63C143.86,465.82,124.94,468.94,105.85,470.65Z"></path><path d="M297.69,172.77a9,9,0,0,1-6.75-15l.37-.42c2.64-3.18,12.36-18.64,16.9-37.07,5.89-23.88,1.3-43.34-13.63-57.86A9,9,0,0,1,295,49.18c10.69-9.14,27.67-10.12,36.83-5.3a9,9,0,0,1,4,4.23c17.63,38.63,7.75,77.19-31.13,121.31l-.43.49A9,9,0,0,1,297.69,172.77ZM315.5,59.21a67.77,67.77,0,0,1,10.58,22,70,70,0,0,0-5.1-22.1A21.13,21.13,0,0,0,315.5,59.21Z"></path><path d="M280,248.1a75.86,75.86,0,0,1-21.38-3,59.48,59.48,0,0,1-35.18-28.92A54.83,54.83,0,0,1,219,173.84a45.62,45.62,0,0,1,32.68-31c16.6-3.93,31.49,2.58,44.28,19.36l.15.2c1.1-.13,2.21-.25,3.34-.33,19-1.41,32.77,6.69,38.87,22.85,5.37,14.29,3.78,26.21-5.15,38.63C320.84,240.71,299.82,248.1,280,248.1Zm-19.1-88.4a21.25,21.25,0,0,0-5,.64,27.9,27.9,0,0,0-19.65,18.81,37,37,0,0,0,3.07,28.53,41.39,41.39,0,0,0,24.43,20.16c17.67,5.23,42.9,1.82,54.86-14.82,5.45-7.58,6.19-13.08,2.92-21.78-2-5.34-6.35-12.32-20.67-11.24a93.43,93.43,0,0,0-11.45,1.84,90.22,90.22,0,0,1-16.92,2.3h-.19a10.65,10.65,0,0,1-10.61-9.89,10.48,10.48,0,0,1,8.78-11.41h0l.53-.08A18.72,18.72,0,0,0,260.87,159.7Zm12.44,20.91h0Z"></path></svg>