<svg _ngcontent-nqk-c1="" class="icons-category" viewBox="0 0 600 600" fill="#d9d9d9" xmlns="http://www.w3.org/2000/svg"><path d="M545.4,431l-0.9-3.7l-0.2,0c-2.5-7.8-5.8-15-9.8-21.4c-10.8-17.1-25.6-26.5-41.7-26.5c-6.5,0-12.8,1.6-18.7,4.6
		c-12.3-34.8-34.1-65.1-63.5-87.9L395.1,284c22.3-20.1,34.4-48.2,34.4-80.4c0-8.2-0.8-16.6-2.3-24.8c18.4-4.2,34-16.1,43-33.2
		c8.1-15.4,9.7-33.1,4.6-49.7c-5.2-16.6-16.5-30.3-31.9-38.4c-15.4-8.1-33.1-9.7-49.7-4.6c-13.4,4.2-24.8,12.3-33,23.3
		C341.5,64.3,321,58,300,58c-20.7,0-41.4,6.4-60.1,18.3c-11.2-15.2-28.5-24.8-47.7-26.1c-35.9-2.5-67.1,24.6-69.7,60.5
		c-1.2,17.4,4.4,34.2,15.8,47.4c9.2,10.6,21.2,17.7,34.5,20.8c-1.5,8.2-2.2,16.5-2.3,24.8c0,32.2,12.1,60.3,34.4,80.4l-15.5,12
		c-29.4,22.9-51.2,53.1-63.5,88c-5.9-3-12.2-4.6-18.7-4.6c-16.1,0-30.9,9.4-41.7,26.5c-4,6.4-7.3,13.6-9.8,21.4l-0.2,0l-1.1,4.5
		c-1.9,6.8-3.2,14-3.8,21.4c0,0.1,0,0.2,0,0.2c-0.1,1.1-0.2,2.2-0.3,3.3c-0.1,0.9-0.1,1.9-0.1,2.8c0,0.3,0,0.7,0,1
		c0,1.3-0.1,2.7-0.1,4c0,6.9,0.5,13.7,1.6,20.2c2.3,14.4,7,27.7,13.9,38.6c8.1,12.8,18.5,21.4,29.9,24.8c3.8,1.2,7.8,1.7,11.8,1.7
		h0.4h0l0.4,0l16.1-1.6v-0.1c43.5-5.1,85.2-20.8,121.3-45.7c15.6,4.8,33.8,7.2,54.5,7.2c20.7,0,38.9-2.4,54.5-7.2
		c36,24.9,77.8,40.6,121.2,45.7v0.1l16.1,1.6l0.9,0c0,0,0,0,0,0l0,0c16.1,0,30.9-9.4,41.7-26.5c10-15.8,15.5-36.7,15.5-58.8
		C550,452.9,548.4,441.5,545.4,431z M503.2,529.5c-0.6,0.3-1.1,0.5-1.7,0.8c-0.1,0-0.1,0.1-0.2,0.1c-0.5,0.2-1,0.4-1.5,0.5
		c-0.1,0-0.3,0.1-0.4,0.1c-0.5,0.1-0.9,0.3-1.4,0.4c-0.2,0-0.4,0.1-0.6,0.1c-0.4,0.1-0.8,0.2-1.2,0.2c-0.2,0-0.5,0.1-0.7,0.1
		c-0.4,0-0.7,0.1-1.1,0.1c-0.2,0-0.4,0-0.6,0v-39.2c0-22.3,15.6-41.2,36.7-46c1,5.9,1.5,11.9,1.5,17.9
		C532,495,519.6,521.4,503.2,529.5C503.2,529.5,503.2,529.5,503.2,529.5z M459,395.6c-0.7,0.8-1.4,1.6-2.1,2.4c0,0,0,0,0,0.1
		c-0.5,0.6-1,1.2-1.5,1.8c0,0-0.1,0.1-0.1,0.1c-0.5,0.6-0.9,1.2-1.4,1.9c0,0-0.1,0.1-0.1,0.1c-0.5,0.7-0.9,1.3-1.4,2c0,0,0,0,0,0
		c-1.9,2.8-3.6,5.8-5.3,8.9c0,0.1-0.1,0.2-0.1,0.3c-0.3,0.7-0.7,1.4-1,2.1c-0.1,0.1-0.1,0.2-0.2,0.4c-0.3,0.7-0.7,1.4-1,2.1
		c0,0.1-0.1,0.2-0.1,0.3c-0.3,0.8-0.7,1.6-1,2.4c0,0,0,0,0,0.1c-1,2.6-2,5.3-2.9,8l-20-6.6c0.4-4.3,0.6-8.8,0.6-13.4
		c0-40.9-16.5-82.3-43.6-111.5c0.8-0.5,1.7-1,2.5-1.6l19.2,14.9C427.7,332.2,448.2,361.6,459,395.6z M398.5,70.1
		c12.1-3.7,24.8-2.6,36,3.3c11.2,5.9,19.4,15.8,23.1,27.8c3.7,12.1,2.6,24.8-3.3,36c-6.5,12.4-17.9,21-31.3,24
		c-6.2-20.4-16.8-39.9-30.9-56.7c-5.5-6.5-11.3-12.4-17.5-17.6C380.5,79,388.8,73.1,398.5,70.1z M151.9,146.2
		c-8.3-9.5-12.3-21.7-11.4-34.3c1.8-26,24.5-45.6,50.5-43.8c13.9,1,26.4,7.9,34.5,18.9c-1.9,1.6-3.7,3.2-5.5,4.9
		c-19.8,18.6-34.8,43-42.8,69.4C167.3,159.1,158.5,153.9,151.9,146.2z M188.5,203.6c0-10.2,1.3-20.3,3.8-30.2
		c6.5-26.1,20.7-50.4,39.9-68.4c14.1-13.2,37.3-29,67.8-29c28.6,0,56.5,14.3,78.3,40.2c21.1,25,33.2,56.8,33.2,87.4
		c0,30.9-12.5,56.2-36.2,73.3l-0.1,0.1c-0.2,0.2-0.5,0.3-0.7,0.5c-4.9,3.5-10.1,6.6-15.6,9.1l-3.3,1.5
		c-16.2,7.1-35.4,10.9-55.6,10.9c-20.1,0-39-3.7-55-10.6l-3.7-1.8c-5.6-2.7-11-5.8-16.1-9.5c-0.1-0.1-0.2-0.2-0.3-0.2l-0.1-0.1
		C201,259.8,188.5,234.4,188.5,203.6z M200.5,310.2l19.2-15c0.8,0.5,1.7,1.1,2.5,1.6c-1.4,1.5-2.8,3.1-4.2,4.7
		c-0.3,0.3-0.6,0.7-0.9,1c-0.5,0.6-1,1.2-1.5,1.8c-0.4,0.4-0.7,0.9-1,1.3c-0.5,0.6-0.9,1.2-1.3,1.7c-0.4,0.5-0.7,1-1.1,1.4
		c-0.4,0.6-0.8,1.1-1.3,1.7c-0.4,0.5-0.7,1-1.1,1.5c-0.4,0.6-0.8,1.1-1.2,1.7c-0.4,0.5-0.7,1.1-1.1,1.6c-0.4,0.6-0.8,1.1-1.1,1.7
		c-0.4,0.6-0.7,1.1-1.1,1.7c-0.4,0.5-0.7,1.1-1,1.6c-0.4,0.6-0.8,1.2-1.1,1.9c-0.3,0.5-0.6,1-0.9,1.6c-0.4,0.7-0.8,1.4-1.2,2.1
		c-0.3,0.5-0.5,0.9-0.8,1.4c-0.6,1.2-1.3,2.3-1.9,3.5c-0.1,0.3-0.3,0.5-0.4,0.8c-0.5,0.9-1,1.9-1.5,2.9c-0.2,0.4-0.4,0.9-0.6,1.3
		c-0.4,0.8-0.8,1.6-1.1,2.3c-0.2,0.5-0.5,1-0.7,1.5c-0.3,0.7-0.7,1.5-1,2.2c-0.2,0.5-0.4,1-0.7,1.5c-0.3,0.7-0.6,1.5-0.9,2.2
		c-0.2,0.5-0.4,1-0.6,1.6c-0.3,0.8-0.6,1.5-0.9,2.3c-0.2,0.5-0.4,1-0.6,1.6c-0.3,0.8-0.6,1.6-0.9,2.3c-0.2,0.5-0.4,1-0.5,1.5
		c-0.3,0.8-0.6,1.6-0.8,2.4c-0.2,0.5-0.3,1-0.5,1.4c-0.3,0.9-0.6,1.8-0.8,2.7c-0.1,0.4-0.2,0.8-0.4,1.2c-0.3,1.2-0.7,2.3-1,3.5
		c0,0.1-0.1,0.3-0.1,0.4c-0.4,1.3-0.7,2.7-1,4c-0.1,0.2-0.1,0.5-0.2,0.7c-0.3,1.1-0.5,2.2-0.8,3.3c-0.1,0.4-0.2,0.8-0.3,1.3
		c-0.2,0.9-0.4,1.8-0.6,2.7c-0.1,0.5-0.2,1-0.3,1.5c-0.2,0.9-0.3,1.7-0.4,2.6c-0.1,0.5-0.2,1-0.2,1.5c-0.1,0.8-0.3,1.7-0.4,2.5
		c-0.1,0.5-0.1,1.1-0.2,1.6c-0.1,0.8-0.2,1.6-0.3,2.5c-0.1,0.5-0.1,1.1-0.2,1.6c-0.1,0.8-0.2,1.7-0.2,2.5c0,0.5-0.1,1-0.1,1.6
		c-0.1,0.9-0.1,1.7-0.2,2.6c0,0.5-0.1,1-0.1,1.5c0,0.9-0.1,1.9-0.1,2.8c0,0.4,0,0.8,0,1.2c0,1.3-0.1,2.7-0.1,4c0,0,0,0,0,0
		c0,0,0,0,0,0c0,0.1,0,0.2,0,0.3c0,1,0,2,0,3.1c0.1,3.4,0.3,6.8,0.6,10l-20,6.7c-0.5-1.5-1-3-1.5-4.5c-0.1-0.1-0.1-0.3-0.2-0.4
		c-0.2-0.6-0.5-1.3-0.7-1.9c-0.1-0.2-0.1-0.3-0.2-0.5c-0.2-0.6-0.5-1.2-0.7-1.8c-0.1-0.2-0.1-0.4-0.2-0.5c-0.3-0.6-0.5-1.2-0.8-1.8
		c-0.1-0.2-0.2-0.3-0.2-0.5c-0.3-0.6-0.5-1.2-0.8-1.8c-0.1-0.2-0.2-0.3-0.3-0.5c-0.3-0.6-0.6-1.1-0.9-1.7c-0.1-0.2-0.2-0.3-0.3-0.5
		c-0.3-0.6-0.6-1.1-0.9-1.7c-0.1-0.2-0.2-0.3-0.3-0.5c-0.4-0.7-0.8-1.4-1.2-2.1c-0.3-0.5-0.6-1.1-1-1.6c-0.1-0.2-0.2-0.3-0.3-0.4
		c-0.4-0.6-0.7-1.1-1.1-1.7c-0.1-0.1-0.1-0.2-0.2-0.3c-0.4-0.6-0.8-1.2-1.3-1.8c0,0-0.1-0.1-0.1-0.1c-1.6-2.2-3.3-4.3-5.1-6.2
		C151.8,361.6,172.2,332.2,200.5,310.2z M68.1,460.7c0-0.5,0-1,0.1-1.5c0-0.9,0.1-1.8,0.2-2.7c0-0.4,0.1-0.8,0.1-1.3
		c0.2-2.8,0.6-5.7,1.1-8.5c21.1,4.8,36.7,23.7,36.7,46V532c-0.2,0-0.5,0-0.7,0c-0.3,0-0.6,0-0.9-0.1c-0.3,0-0.7-0.1-1-0.2
		c-0.3-0.1-0.6-0.1-0.9-0.2c-0.3-0.1-0.7-0.2-1-0.2c-0.3-0.1-0.6-0.2-0.9-0.2c-0.3-0.1-0.6-0.2-1-0.3c-0.3-0.1-0.6-0.2-0.9-0.3
		c-0.3-0.1-0.6-0.3-1-0.4c-0.3-0.1-0.6-0.3-0.9-0.4c-0.3-0.2-0.6-0.3-0.9-0.5c-0.3-0.2-0.6-0.3-0.9-0.5c-0.3-0.2-0.6-0.4-0.9-0.6
		c-0.3-0.2-0.6-0.4-0.9-0.5c-0.3-0.2-0.6-0.4-0.9-0.6c-0.3-0.2-0.6-0.4-0.8-0.6c-0.3-0.2-0.6-0.5-0.9-0.7c-0.3-0.2-0.6-0.4-0.8-0.7
		c-0.3-0.2-0.6-0.5-0.8-0.8c-0.3-0.2-0.5-0.5-0.8-0.8c-0.3-0.3-0.5-0.6-0.8-0.8c-0.3-0.3-0.5-0.5-0.8-0.8c-0.3-0.3-0.5-0.6-0.8-0.9
		c-0.3-0.3-0.5-0.6-0.8-0.9c-0.3-0.3-0.5-0.6-0.8-0.9c-0.3-0.3-0.5-0.6-0.8-1c-0.2-0.3-0.5-0.7-0.7-1c-0.2-0.3-0.5-0.7-0.7-1
		c-0.2-0.3-0.5-0.7-0.7-1c-0.2-0.4-0.5-0.7-0.7-1.1c-0.2-0.3-0.4-0.7-0.6-1.1c-0.2-0.4-0.5-0.8-0.7-1.2c-0.2-0.4-0.4-0.7-0.6-1.1
		c-0.2-0.4-0.5-0.8-0.7-1.3c-0.2-0.4-0.4-0.7-0.6-1.1c-0.2-0.4-0.4-0.9-0.7-1.3c-0.2-0.4-0.3-0.7-0.5-1.1c-0.2-0.5-0.4-0.9-0.6-1.4
		c-0.2-0.4-0.3-0.7-0.5-1.1c-0.2-0.5-0.4-1-0.6-1.5c-0.1-0.4-0.3-0.7-0.4-1.1c-0.2-0.5-0.4-1.1-0.6-1.6c-0.1-0.4-0.2-0.7-0.4-1.1
		c-0.2-0.6-0.4-1.1-0.6-1.7c-0.1-0.4-0.2-0.7-0.3-1.1c-0.2-0.6-0.4-1.2-0.5-1.8c-0.1-0.3-0.2-0.7-0.3-1c-0.2-0.6-0.3-1.3-0.5-1.9
		c-0.1-0.3-0.2-0.7-0.2-1c-0.2-0.7-0.3-1.3-0.5-2c-0.1-0.3-0.1-0.6-0.2-1c-0.1-0.7-0.3-1.4-0.4-2.1c-0.1-0.3-0.1-0.6-0.2-0.9
		c-0.1-0.7-0.3-1.5-0.4-2.2c0-0.3-0.1-0.6-0.1-0.8c-0.1-0.8-0.2-1.6-0.3-2.3c0-0.3-0.1-0.5-0.1-0.8c-0.1-0.8-0.2-1.6-0.3-2.4
		c0-0.3,0-0.5-0.1-0.8c-0.1-0.8-0.1-1.6-0.2-2.5c0-0.3,0-0.7,0-1c0-0.8-0.1-1.5-0.1-2.3c0-0.6,0-1.2,0-1.9c0-0.5,0-1,0-1.5
		c0,0,0,0,0-0.1C68,463.3,68,462,68.1,460.7z M124.2,530.1v-37.3c0-30.6-21.3-56.6-50.2-63.4c7-19.1,19.4-32,33.2-32
		c6.4,0,12.7,2.9,18.3,8.1c0.2,0.2,0.3,0.3,0.5,0.5c0.3,0.3,0.6,0.6,0.9,0.9c0.2,0.2,0.3,0.3,0.5,0.5c5.8,6.1,10.7,14.7,14.1,24.9
		c0,0.1,0.1,0.2,0.1,0.3c0.2,0.6,0.4,1.1,0.5,1.7c0.1,0.3,0.2,0.7,0.3,1c0.1,0.5,0.3,0.9,0.4,1.4c0.1,0.5,0.3,1,0.4,1.5
		c0.1,0.4,0.2,0.7,0.3,1.1c0.2,0.9,0.4,1.7,0.6,2.6c0,0,0,0.1,0,0.1l2.1,9.8l36.1-12.1c5.5,21.3,17.2,38,34.9,49.8
		c2.6,1.7,5.3,3.3,8.1,4.8C194.6,513.4,160.1,525.6,124.2,530.1z M227.1,474.6c-15-10-24.3-24.2-28.3-43l-0.8-4.9
		c-0.7-4.5-1.2-9.1-1.4-13.7c0,0,0,0,0,0c-0.1-1.5-0.1-3-0.1-4.6c0,0,0,0,0,0c0-0.1,0-0.2,0-0.3c0-1.1,0-2.2,0-3.4
		c0-0.5,0-1,0.1-1.5c0-0.7,0.1-1.4,0.1-2.2c0-0.6,0.1-1.2,0.1-1.8c0-0.6,0.1-1.3,0.1-1.9c0-0.6,0.1-1.2,0.2-1.8
		c0.1-0.6,0.1-1.2,0.2-1.9c0.1-0.6,0.1-1.2,0.2-1.9c0.1-0.6,0.1-1.2,0.2-1.8c0.1-0.6,0.2-1.3,0.3-1.9c0.1-0.6,0.2-1.2,0.3-1.8
		c0.1-0.6,0.2-1.3,0.3-1.9c0.1-0.6,0.2-1.2,0.3-1.8c0.1-0.6,0.2-1.2,0.4-1.9c0.1-0.6,0.2-1.2,0.4-1.8c0.1-0.6,0.3-1.2,0.4-1.9
		c0.1-0.6,0.3-1.2,0.4-1.8c0.1-0.6,0.3-1.2,0.5-1.8c0.1-0.6,0.3-1.2,0.5-1.8c0.2-0.6,0.3-1.2,0.5-1.8c0.2-0.6,0.3-1.2,0.5-1.8
		c0.2-0.6,0.4-1.2,0.5-1.8c0.2-0.6,0.4-1.2,0.5-1.8c0.2-0.6,0.4-1.2,0.6-1.8c0.2-0.6,0.4-1.2,0.6-1.7c0.2-0.6,0.4-1.2,0.6-1.8
		c0.2-0.6,0.4-1.2,0.6-1.7c0.2-0.6,0.4-1.2,0.7-1.8c0.2-0.6,0.4-1.1,0.7-1.7c0.2-0.6,0.5-1.2,0.7-1.8c0.2-0.6,0.5-1.1,0.7-1.7
		c0.2-0.6,0.5-1.2,0.8-1.7c0.2-0.6,0.5-1.1,0.8-1.7c0.3-0.6,0.5-1.2,0.8-1.7c0.3-0.5,0.5-1.1,0.8-1.6c0.3-0.6,0.6-1.1,0.8-1.7
		c0.3-0.5,0.5-1.1,0.8-1.6c0.3-0.6,0.6-1.1,0.9-1.7c0.3-0.5,0.6-1,0.8-1.5c0.3-0.6,0.6-1.1,1-1.7c0.3-0.5,0.6-1,0.9-1.5
		c0.3-0.6,0.7-1.1,1-1.7c0.3-0.5,0.6-1,0.9-1.4c0.4-0.6,0.7-1.2,1.1-1.7c0.3-0.5,0.6-0.9,0.9-1.4c0.4-0.6,0.8-1.2,1.1-1.7
		c0.3-0.4,0.6-0.8,0.9-1.3c0.4-0.6,0.8-1.2,1.2-1.8c0.3-0.4,0.6-0.8,0.8-1.2c0.4-0.6,0.9-1.2,1.3-1.8c0.3-0.3,0.5-0.7,0.8-1
		c0.5-0.6,1-1.3,1.4-1.9c0.2-0.3,0.5-0.6,0.7-0.9c0.5-0.7,1.1-1.3,1.6-2c0.2-0.2,0.4-0.5,0.6-0.7c0.6-0.7,1.2-1.4,1.8-2.1
		c0.1-0.1,0.3-0.3,0.4-0.4c0.7-0.8,1.4-1.5,2.1-2.3c0,0,0,0,0,0c1.1-1.2,2.2-2.3,3.3-3.4c18,7.6,39,11.6,61,11.6
		c22,0,42.9-4,60.9-11.6c26.3,26.1,42.5,65,42.5,103c0,6.1-0.5,12.2-1.4,18.1l-0.7,4.4c-3.9,19.1-13.3,33.5-28.5,43.6
		c-17.1,11.4-41.7,17.2-72.9,17.2C268.8,491.8,244.3,486,227.1,474.6z M374.8,494.4c2.8-1.5,5.5-3.1,8.1-4.8
		c17.7-11.8,29.4-28.5,34.9-49.8l36.1,12l2.1-9.8c0.5-2.4,1.1-4.8,1.8-7.1c0-0.1,0.1-0.2,0.1-0.3c0.2-0.7,0.4-1.3,0.6-1.9
		c0.1-0.3,0.2-0.7,0.3-1c0.1-0.4,0.3-0.8,0.4-1.3c3.5-9.7,8.4-18.1,14.3-23.9c0,0,0.1-0.1,0.2-0.1c0.5-0.5,1-0.9,1.5-1.4
		c5.4-4.9,11.5-7.6,17.7-7.6c13.8,0,26.2,13,33.2,32c-28.9,6.8-50.2,32.8-50.2,63.4v37.3C439.9,525.6,405.4,513.4,374.8,494.4z"></path>
	<path d="M300,379.4c-41.1,0-73.3,21.6-73.3,49.2s32.2,49.2,73.3,49.2s73.3-21.6,73.3-49.2S341.1,379.4,300,379.4z M300,459.7
		c-30,0-55.3-14.3-55.3-31.2c0-16.9,25.3-31.2,55.3-31.2c30,0,55.3,14.3,55.3,31.2C355.3,445.4,330,459.7,300,459.7z"></path>
	<ellipse cx="251.8" cy="179.5" rx="16.1" ry="24.1"></ellipse>
	<ellipse cx="348.2" cy="179.5" rx="16.1" ry="24.1"></ellipse>
	<path d="M258.9,231.7c0,13.9,12.7,25.3,31.7,28.3c0.2,0,0.3,0,0.5,0.1v10.5c-21.7-2.8-31.4-15.3-31.9-16c-2.9-4-8.5-4.9-12.5-2
		c-4,2.9-5,8.5-2.1,12.6c0.7,1,17.6,24,55.5,24c37.9,0,54.8-23.2,55.5-24.2c2.9-4.1,1.9-9.7-2.1-12.5c-4.1-2.9-9.7-1.9-12.5,2.1
		c-0.1,0.1-9.9,13.1-31.9,16v-10.5c0.2,0,0.3,0,0.5-0.1c18.9-3.1,31.7-14.4,31.7-28.3c0-16.3-18.1-29.1-41.1-29.1
		S258.9,215.4,258.9,231.7z M282.1,225.1c4.6-2.9,11.1-4.5,17.9-4.5s13.4,1.6,17.9,4.5c3.2,2,5.2,4.5,5.2,6.6
		c0,3.8-6.3,8.9-16.5,10.6c-4.4,0.7-8.8,0.7-13.2,0c-10.2-1.7-16.5-6.8-16.5-10.6C276.9,229.6,278.8,227.2,282.1,225.1z"></path>

</svg>