<svg _ngcontent-xli-c1="" class="icons-category" viewBox="0 0 600 600" fill="#d9d9d9" xmlns="http://www.w3.org/2000/svg"><path d="M300,359a59,59,0,1,1,59-59A59.07,59.07,0,0,1,300,359Zm0-100a41,41,0,1,0,41,41A41,41,0,0,0,300,259Z"></path><path d="M300.64,550A250,250,0,0,1,123.86,123.22,250,250,0,1,1,477.41,476.78,248.4,248.4,0,0,1,300.64,550Zm0-482a232,232,0,0,0-164,396.05A232,232,0,1,0,464.68,136,230.46,230.46,0,0,0,300.64,68Z"></path><path d="M175,359a59,59,0,1,1,59-59A59.07,59.07,0,0,1,175,359Zm0-100a41,41,0,1,0,41,41A41,41,0,0,0,175,259Z"></path><path d="M425,359a59,59,0,1,1,59-59A59.07,59.07,0,0,1,425,359Zm0-100a41,41,0,1,0,41,41A41,41,0,0,0,425,259Z"></path></svg>